<svg viewBox="8 9 94 86" width="470" height="430" xmlns="http://www.w3.org/2000/svg"><defs><linearGradient id="gTop4" gradientUnits="userSpaceOnUse" x1="55" y1="19" x2="55" y2="52"><stop offset="0" stop-color="#BBDAFF"></stop><stop offset="1" stop-color="#6FA4F2"></stop></linearGradient><linearGradient id="gBot4" gradientUnits="userSpaceOnUse" x1="55" y1="38" x2="55" y2="72"><stop offset="0" stop-color="#6FA4F2"></stop><stop offset="1" stop-color="#3B74DC"></stop></linearGradient><linearGradient id="gWord4" gradientUnits="userSpaceOnUse" x1="20" y1="80" x2="92" y2="80"><stop offset="0" stop-color="#4DA9FF"></stop><stop offset="1" stop-color="#2A6FDB"></stop></linearGradient></defs><rect x="8" y="9" width="94" height="86" fill="#050D1A"></rect>
  <path fill="url(#gTop4)" fill-opacity="0" stroke="#BBDAFF" stroke-width="0.55" stroke-linecap="round" stroke-linejoin="round" pathLength="1" stroke-dasharray="1" stroke-dashoffset="-1" d="m45.7 49.8c-4.7-1.7-8.5-3.8-8.5-7.3 0.3-4.4 7-9.1 20.5-10.6 4.8-0.6 14.8-1.2 18.1 1l3.6-10.2c0.4-1.2-1.7-2.4-5.3-2.8-4.7-0.5-9.8-0.3-15.7 0.5-4.1 0.6-9.3 1.8-14 4-3.9 1.9-11.1 6.2-11 13.2 0.1 6.6 7.2 10.3 12.3 12.2zm30.4-28.1c0.5 0.1 1.1 0.3 1.6 0.6l-0.7 2c-0.6-0.2-1.1-0.3-1.6-0.5l0.7-2.1zm-4.4-0.8c0.7 0 1.5 0.1 2.1 0.2l-0.6 2.2c-0.7-0.1-1.5-0.2-2.2-0.2l0.7-2.2zm-5.6 0.1h2.5l-0.4 2.1h-2.5l0.4-2.1zm-5.6 0.6c0.9-0.1 1.7-0.2 2.6-0.2l-0.4 2.1c-0.9 0.1-1.8 0.2-2.5 0.3l0.3-2.2zm-5.7 1.2c0.8-0.2 1.7-0.4 2.7-0.5l-0.3 2.1c-0.7 0.2-1.6 0.3-2.5 0.6l0.1-2.2zm-5.3 1.5 2.8-0.9-0.2 2.4-2.7 0.9 0.1-2.4z">
    
    
    
  </path>
  <path fill="url(#gBot4)" fill-opacity="0" stroke="#5E97EE" stroke-width="0.55" stroke-linecap="round" stroke-linejoin="round" pathLength="1" stroke-dasharray="1" stroke-dashoffset="-1" d="m59.7 40.6c4.3 1.6 9.7 4.8 9.9 7.6 0 1.9-1.6 6.7-11 9.4-3.5 1.1-9.1 2.2-15.2 2.2-3.7 0-7-0.6-8.2-1.7l-3.3 9.4c-0.1 1.5 2.3 3.7 10.9 3.7 5.6 0.1 14.5-1.1 19.3-2.8 3.4-1.1 11.8-4.1 12.4-11.9 0.2-4.2-2.3-7.1-4.6-9.5-2.7-2.9-6.9-5-10.2-6.4zm-25.3 28c-0.5-0.2-0.9-0.5-1.2-0.8l0.6-1.9 1.2 0.7-0.6 2zm4 1c-0.7-0.1-1.5-0.2-2-0.4l0.5-2c0.7 0.1 1.4 0.3 2.2 0.4l-0.7 2zm5.4 0c-0.9 0.1-1.6 0.1-2.5 0l0.4-2h2.5l-0.4 2zm5.3-0.6c-0.8 0.1-1.7 0.2-2.6 0.3l0.4-2c0.8-0.1 1.7-0.2 2.6-0.3l-0.4 2zm5.3-0.8c-0.8 0.2-1.6 0.3-2.4 0.4l0.2-2c0.8-0.2 1.7-0.3 2.5-0.5l-0.3 2.1zm5.3-1.5-2.7 0.7 0.1-2.1 2.7-0.8-0.1 2.2z">
    
    
    
  </path>
  <path fill="#3D85EC" fill-opacity="0" stroke="#8FCBFF" stroke-width="0.55" stroke-linecap="round" stroke-linejoin="round" pathLength="1" stroke-dasharray="1" stroke-dashoffset="-1" d="m51.4 37.9 9.6 6.3c1.1 0.7 1.1 1.9 0.1 2.5l-9.6 6.4c-1 0.7-2.1 0.2-2.1-0.8v-13.7c0-1 1-1.3 2-0.7z">
    
    
    
  </path>
  <path fill="url(#gWord4)" fill-opacity="0" stroke="#4DA9FF" stroke-width="0.3" stroke-linecap="round" stroke-linejoin="round" pathLength="1" stroke-dasharray="1" stroke-dashoffset="-1" d="m26 79.2h-4.1c-0.7 0-0.9-0.3-0.9-0.8 0-0.4 0.2-0.7 0.9-0.7h5.9c0.4 0.1 0.6-1.2 0.7-1.8l-0.1-0.1h-7c-1.7 0-2.9 0.7-2.9 2.3v0.3c0 1.6 1 2.3 2.7 2.3h4.2c0.7 0 0.9 0.3 0.9 0.7v0.3c-0.1 0.3-0.4 0.5-0.8 0.5h-6.4l-0.3 0.2c-0.2 0.5-0.4 1.3-0.4 1.5h0.1 7.3c1.9 0 2.7-0.8 2.7-2.3v-0.3c0-1.4-0.7-2.1-2.5-2.1z">
    
    
    
  </path>
  <path fill="url(#gWord4)" fill-opacity="0" stroke="#4DA9FF" stroke-width="0.3" stroke-linecap="round" stroke-linejoin="round" pathLength="1" stroke-dasharray="1" stroke-dashoffset="-1" d="m31.3 75.1c-0.5 0-0.9 0.4-0.9 0.9s0.4 0.8 0.9 0.8 0.9-0.3 0.9-0.8-0.4-0.9-0.9-0.9z">
    
    
    
  </path>
  <path fill="url(#gWord4)" fill-opacity="0" stroke="#4DA9FF" stroke-width="0.3" stroke-linecap="round" stroke-linejoin="round" pathLength="1" stroke-dasharray="1" stroke-dashoffset="-1" d="m31.6 78.1h-0.9c-0.4 0-0.4 0.3-0.4 0.5v4.8c0 0.4 0.2 0.4 0.4 0.4h0.9c0.3 0 0.5-0.1 0.5-0.4v-4.8c0-0.4-0.2-0.5-0.5-0.5z">
    
    
    
  </path>
  <path fill="url(#gWord4)" fill-opacity="0" stroke="#4DA9FF" stroke-width="0.3" stroke-linecap="round" stroke-linejoin="round" pathLength="1" stroke-dasharray="1" stroke-dashoffset="-1" d="m42.6 76.8h-0.9c-0.3 0-0.5 0.1-0.5 0.5v4l-4.3-4c-0.5-0.4-0.8-0.6-1.2-0.6h-0.3c-0.7 0-1.2 0.1-1.2 0.9v5.8c0 0.4 0.2 0.4 0.4 0.4h0.9c0.4 0 0.5 0 0.6-0.4v-4.2l4.4 3.9c0.6 0.5 0.8 0.8 1.4 0.8h0.3c0.6 0 1-0.3 1-0.8v-5.9c0-0.3 0-0.4-0.4-0.4h-0.2z">
    
    
    
  </path>
  <path fill="url(#gWord4)" fill-opacity="0" stroke="#4DA9FF" stroke-width="0.3" stroke-linecap="round" stroke-linejoin="round" pathLength="1" stroke-dasharray="1" stroke-dashoffset="-1" d="m45.1 77.1h8c0.3 0 0.5 0.2 0.5 0.5v3c0 0.3-0.2 0.5-0.5 0.5h-6.4l-0.1 0.2c-0.1 0.5 0 0.8 0.3 0.8h6.4l0.3 0.1c0.1 0.1 0.2 1.4 0.1 1.5l-0.3 0.1h-6.8c-1.3 0-2-0.8-2-2.2v-4c0-0.3 0.2-0.5 0.5-0.5zm1.2 1.5v1h5.6v-1z">
    
    
    
  </path>
  <path fill="url(#gWord4)" fill-opacity="0" stroke="#4DA9FF" stroke-width="0.3" stroke-linecap="round" stroke-linejoin="round" pathLength="1" stroke-dasharray="1" stroke-dashoffset="-1" d="m66.3 75.6h-0.6c-0.6 0-1 0.2-1.3 0.7l-3 4.7-3.1-4.7c-0.3-0.4-0.6-0.7-1.3-0.7h-0.7c-0.4 0-0.6 0.3-0.6 0.5v7.4c0 0.3 0.3 0.3 0.4 0.3h1.1c0.4 0 0.4-0.2 0.4-0.5v-4.7l2.9 4.4c0.1 0.2 0.4 0.4 0.7 0.4s0.6-0.1 0.7-0.3l3.1-4.5 0.1 4.7c0 0.5 0.3 0.5 0.5 0.5h0.9c0.2 0 0.4 0 0.4-0.3v-7.4c0-0.2 0-0.5-0.6-0.5z">
    
    
    
  </path>
  <path fill="url(#gWord4)" fill-opacity="0" stroke="#4DA9FF" stroke-width="0.3" stroke-linecap="round" stroke-linejoin="round" pathLength="1" stroke-dasharray="1" stroke-dashoffset="-1" d="m74.5 77.1h-5.6c-0.3 0-0.3 0.2-0.3 0.3v1.1c0.1 0.3 0.2 0.3 0.4 0.3h5c0.9 0 1.2 0.3 1.2 1h-5.3c-0.9 0.1-1.6 0.6-1.6 2 0 1.2 0.7 1.9 1.8 2h4l1.1-0.2 0.2 0.2h1.6l0.1-0.1v-4.5c0-1.4-0.7-2.1-2.3-2.1h-0.3zm0.7 4.7c-0.1 0.4-0.3 0.4-0.6 0.4h-3.5c-0.5 0-0.6-0.3-0.6-0.5l0.1-0.4 0.3-0.1h4.3v0.6z">
    
    
    
  </path>
  <path fill="url(#gWord4)" fill-opacity="0" stroke="#4DA9FF" stroke-width="0.3" stroke-linecap="round" stroke-linejoin="round" pathLength="1" stroke-dasharray="1" stroke-dashoffset="-1" d="m86.3 79.8 4.7-4.9h-2.7l-0.4 0.2-2.9 3.1-3.1-3.2-0.2-0.1h-3.1l4.5 4.9-4.5 4.8h2.9l0.3-0.1 3.1-3.2 2.8 3 0.3 0.3h3.1l-4.8-4.8z">
    
    
    
  </path>
</svg>